# xmcd
#
# Track frame offsets:
#	150
#	14992
#	30825
#	44025
#	64837
#	82645
#	110817
#	123334
#	144476
#	164206
#	173244
#	200765
#
# Disc length: 2926 seconds
#
# Revision: 1
# Processed by: cddbd v1.4PL0 Copyright (c) Steve Scherf et al.
# Submitted via: audiograbber 1.80
#
DISCID=af0b6c0c
DTITLE=Irate - 11:34
DYEAR=1900
DGENRE=
TTITLE0=Gone
TTITLE1=1134
TTITLE2=Awakenings
TTITLE3=Day of Reckoning
TTITLE4=C.P.R.
TTITLE5=Already Dead
TTITLE6=Supremacy
TTITLE7=Step to my World
TTITLE8=Always Remain
TTITLE9=Cerebral Assasin
TTITLE10=Dishonor
TTITLE11=Transcendence
EXTD=
EXTT0=
EXTT1=
EXTT2=
EXTT3=
EXTT4=
EXTT5=
EXTT6=
EXTT7=
EXTT8=
EXTT9=
EXTT10=
EXTT11=
PLAYORDER=
